<svg width="30" height="30" viewBox="0 0 30 30" fill="none" xmlns="http://www.w3.org/2000/svg">
<path d="M22.5 9.75607H21.25V7.31704C21.25 3.95119 18.45 1.21948 15 1.21948C11.55 1.21948 8.75 3.95119 8.75 7.31704V9.75607H7.5C6.125 9.75607 5 10.8536 5 12.1951V24.3902C5 25.7317 6.125 26.8292 7.5 26.8292H22.5C23.875 26.8292 25 25.7317 25 24.3902V12.1951C25 10.8536 23.875 9.75607 22.5 9.75607ZM11.25 7.31704C11.25 5.29265 12.925 3.65851 15 3.65851C17.075 3.65851 18.75 5.29265 18.75 7.31704V9.75607H11.25V7.31704ZM22.5 24.3902H7.5V12.1951H22.5V24.3902ZM15 20.7317C16.375 20.7317 17.5 19.6341 17.5 18.2927C17.5 16.9512 16.375 15.8536 15 15.8536C13.625 15.8536 12.5 16.9512 12.5 18.2927C12.5 19.6341 13.625 20.7317 15 20.7317Z" fill="#4169E1"/>
</svg>
